<?xml version="1.0" encoding="UTF-8"?>
<!DOCTYPE svg PUBLIC "-//W3C//DTD SVG 1.1//EN" "http://www.w3.org/Graphics/SVG/1.1/DTD/svg11.dtd">
<svg xmlns="http://www.w3.org/2000/svg" version="1.1" width="237px" height="117px" style="shape-rendering:geometricPrecision; text-rendering:geometricPrecision; image-rendering:optimizeQuality; fill-rule:evenodd; clip-rule:evenodd" xmlns:xlink="http://www.w3.org/1999/xlink">
<g><path style="opacity:1" fill="#fefffe" d="M 118.5,20.5 C 139.249,21.558 144.249,30.8914 133.5,48.5C 140.923,52.0906 146.09,57.7573 149,65.5C 150.684,63.6487 152.517,61.982 154.5,60.5C 155.707,48.2943 158.874,36.6277 164,25.5C 168.409,20.6791 173.409,19.6791 179,22.5C 180.992,27.9224 180.659,33.2558 178,38.5C 174.924,46.5806 169.924,53.2473 163,58.5C 161.716,64.7455 161.716,71.0788 163,77.5C 163.561,78.0219 164.228,78.3552 165,78.5C 170.172,72.4842 172.838,65.4842 173,57.5C 174.198,53.2541 176.698,50.0875 180.5,48C 184.106,49.3304 187.606,51.1637 191,53.5C 192.5,56.1335 192.667,58.8001 191.5,61.5C 193.841,62.7115 196.007,62.3782 198,60.5C 197.933,55.4689 199.433,50.9689 202.5,47C 206.465,43.7877 210.465,43.7877 214.5,47C 209.599,47.2277 206.433,49.7277 205,54.5C 203.608,57.8217 203.441,61.1551 204.5,64.5C 205.748,63.9598 206.915,63.2931 208,62.5C 209.804,58.6194 211.304,54.6194 212.5,50.5C 213.325,49.6143 214.325,49.281 215.5,49.5C 215.752,54.5186 216.252,59.5186 217,64.5C 219.5,63.3333 221.333,61.5 222.5,59C 223.5,58.3333 224.5,58.3333 225.5,59C 223.347,63.3124 220.347,66.8124 216.5,69.5C 215.67,75.4725 215.17,81.4725 215,87.5C 212.832,94.8358 207.999,97.3358 200.5,95C 196.799,90.7379 196.633,86.2379 200,81.5C 202.667,77.5 206,74.1667 210,71.5C 210.667,69.5 210.667,67.5 210,65.5C 205.332,68.4019 201.166,67.7353 197.5,63.5C 195.453,65.0152 193.119,65.8485 190.5,66C 188.233,69.9389 185.066,72.7723 181,74.5C 178.322,73.5767 175.822,72.2434 173.5,70.5C 171.165,73.1662 169.331,76.1662 168,79.5C 166.261,81.7411 164.094,83.4078 161.5,84.5C 159.132,83.6314 157.632,81.9647 157,79.5C 155.894,74.2305 155.227,68.8972 155,63.5C 153.622,65.2134 151.955,66.5467 150,67.5C 149.931,81.7152 143.097,90.3819 129.5,93.5C 123.414,93.9194 121.247,91.2527 123,85.5C 124.122,83.3762 125.622,81.5429 127.5,80C 131.753,77.2903 135.92,74.457 140,71.5C 140.612,65.4494 139.112,59.9494 135.5,55C 130.501,52.1086 125.167,51.1086 119.5,52C 117.656,60.8092 116.656,69.6425 116.5,78.5C 114.61,78.7035 113.11,78.0368 112,76.5C 111.5,60.8369 111.333,45.1702 111.5,29.5C 117.36,29.1957 120.027,32.029 119.5,38C 118.544,41.3936 118.211,44.8936 118.5,48.5C 126.876,47.7855 131.21,43.1189 131.5,34.5C 131.152,32.3033 130.152,30.47 128.5,29C 121.098,25.8364 113.764,25.8364 106.5,29C 102.633,33.0804 102.633,37.0804 106.5,41C 105.216,41.6838 104.049,41.5171 103,40.5C 99.4454,35.2661 99.9454,30.4328 104.5,26C 108.845,23.0574 113.511,21.2241 118.5,20.5 Z M 172.5,24.5 C 174.411,24.5743 175.578,25.5743 176,27.5C 176.089,38.3209 172.089,47.3209 164,54.5C 164.345,43.7838 167.179,33.7838 172.5,24.5 Z M 187.5,54.5 C 189.525,56.7258 189.691,59.0592 188,61.5C 186.277,59.3332 186.11,56.9998 187.5,54.5 Z M 180.5,56.5 C 181.633,60.3153 183.966,63.3153 187.5,65.5C 185.781,68.2195 183.447,70.2195 180.5,71.5C 179.05,70.3446 178.05,68.8446 177.5,67C 179.208,63.7073 180.208,60.2073 180.5,56.5 Z M 209.5,75.5 C 210.152,76.4486 210.486,77.6153 210.5,79C 210,82.5 209.5,86 209,89.5C 207.971,92.8753 205.804,94.0419 202.5,93C 201.325,90.1619 201.491,87.3285 203,84.5C 204.686,81.117 206.853,78.117 209.5,75.5 Z M 138.5,76.5 C 139.573,77.2506 139.74,78.2506 139,79.5C 137.275,85.5689 133.441,89.0689 127.5,90C 126.24,88.1862 126.24,86.3529 127.5,84.5C 131.208,81.7767 134.875,79.1101 138.5,76.5 Z"/></g>
<g><path style="opacity:1" fill="#fefffe" d="M 62.5,21.5 C 69.7028,21.8632 72.5361,25.5299 71,32.5C 68.5795,45.8588 61.4128,55.6921 49.5,62C 49.5562,65.6938 49.7229,69.5272 50,73.5C 54.584,70.9203 58.584,67.5869 62,63.5C 62.371,56.4129 65.5377,51.0796 71.5,47.5C 74.6267,49.5937 77.7933,51.5937 81,53.5C 82.5001,56.1335 82.6668,58.8001 81.5,61.5C 82.723,62.6139 84.0563,62.7805 85.5,62C 87.3436,60.8179 89.1769,59.6512 91,58.5C 92.2575,58.8499 92.5908,59.5165 92,60.5C 88.6206,63.2926 84.7872,65.1259 80.5,66C 74.4009,77.1024 68.2342,77.2691 62,66.5C 58.886,69.2958 55.7193,71.9625 52.5,74.5C 55.9224,79.4994 56.7557,84.8327 55,90.5C 52.7779,93.0443 50.6112,93.0443 48.5,90.5C 45.4322,84.5404 43.5988,78.2071 43,71.5C 41.258,76.6763 37.9247,80.343 33,82.5C 31.7387,82.2409 30.7387,81.5742 30,80.5C 29.2618,78.0472 28.7618,75.5472 28.5,73C 29.8326,66.1827 30.666,59.3493 31,52.5C 26.3036,58.556 22.637,65.2227 20,72.5C 18.103,74.0163 15.9363,74.683 13.5,74.5C 13.3335,64.8276 13.5002,55.1609 14,45.5C 15.0495,44.4829 16.2161,44.3162 17.5,45C 20.5016,49.3529 21.1683,54.0196 19.5,59C 20.1905,60.0674 20.6905,61.2341 21,62.5C 23.2886,56.7486 26.4553,51.5819 30.5,47C 36.8112,45.2243 39.4779,47.5576 38.5,54C 36.964,61.7843 36.1307,69.6176 36,77.5C 42.4463,67.9245 45.7796,57.2579 46,45.5C 48.1274,37.0777 51.9607,29.5777 57.5,23C 59.3817,22.8019 61.0484,22.3019 62.5,21.5 Z M 51.5,56.5 C 52.8844,47.5132 55.3844,38.8465 59,30.5C 63.0399,22.2426 65.8732,22.5759 67.5,31.5C 66.396,42.7444 61.0627,51.0778 51.5,56.5 Z M 77.5,54.5 C 79.5247,56.7258 79.6914,59.0592 78,61.5C 76.2771,59.3332 76.1104,56.9998 77.5,54.5 Z M 70.5,56.5 C 71.6331,60.3153 73.9665,63.3153 77.5,65.5C 75.7807,68.2195 73.4474,70.2195 70.5,71.5C 69.0495,70.3446 68.0495,68.8446 67.5,67C 69.2085,63.7073 70.2085,60.2073 70.5,56.5 Z M 50.5,79.5 C 53.1356,82.2611 53.9689,85.5944 53,89.5C 51.5387,86.3214 50.7054,82.9881 50.5,79.5 Z"/></g>
<g><path style="opacity:1" fill="#fefffe" d="M 10.5,22.5 C 15.774,23.5556 15.774,24.5556 10.5,25.5C 12.3888,41.1056 12.5555,56.7723 11,72.5C 10.6905,73.7659 10.1905,74.9326 9.5,76C 11.2556,76.2022 12.9223,76.7022 14.5,77.5C 9.9335,79.4524 5.26683,79.7857 0.5,78.5C 1.68884,77.5713 3.02218,77.238 4.5,77.5C 3.10993,60.1166 3.2766,42.7833 5,25.5C 3.81732,26.731 2.65066,26.731 1.5,25.5C 4.50456,24.1823 7.50456,23.1823 10.5,22.5 Z"/></g>
</svg>
