<?xml version="1.0" standalone="no"?>
<!DOCTYPE svg PUBLIC "-//W3C//DTD SVG 20010904//EN"
 "http://www.w3.org/TR/2001/REC-SVG-20010904/DTD/svg10.dtd">
<svg version="1.0" xmlns="http://www.w3.org/2000/svg"
 width="237.000000pt" height="117.000000pt" viewBox="0 0 237.000000 117.000000"
 preserveAspectRatio="xMidYMid meet">

<g transform="translate(0.000000,117.000000) scale(0.100000,-0.100000)"
fill="#000000" stroke="none">
<path d="M1713 949 c-43 -13 -77 -57 -103 -134 -25 -75 -50 -188 -50 -226 0
-16 -13 -38 -35 -59 l-34 -33 -19 44 c-27 61 -66 106 -107 119 -19 6 -35 14
-35 16 0 3 12 21 27 41 37 48 44 136 14 174 -30 39 -81 59 -148 59 -79 0 -128
-16 -169 -53 -44 -41 -50 -96 -15 -130 l23 -22 -11 22 c-17 33 -13 67 9 96 28
36 73 46 150 35 102 -13 129 -55 96 -147 -14 -41 -48 -68 -93 -77 l-31 -6 5
79 c6 86 -5 123 -36 123 -12 0 -21 -10 -25 -26 -8 -29 -6 -422 1 -441 3 -7 14
-13 24 -13 18 0 19 9 19 114 0 63 3 121 6 130 9 23 108 22 154 -2 43 -21 80
-89 80 -148 0 -39 -2 -43 -57 -77 -69 -42 -109 -83 -117 -117 -10 -40 7 -54
62 -54 95 0 179 85 191 190 5 48 11 60 39 82 l32 25 1 -49 c1 -65 20 -135 41
-147 28 -18 63 7 98 70 19 32 35 60 36 62 2 2 17 -8 34 -23 17 -14 38 -26 45
-26 15 0 85 65 85 78 0 4 21 13 46 20 39 10 50 10 63 -1 28 -24 53 -28 77 -12
23 15 24 15 24 -16 0 -24 -13 -45 -54 -90 -67 -72 -84 -115 -61 -158 13 -26
21 -31 53 -31 77 0 112 55 112 175 l0 77 45 50 c55 62 60 86 6 34 l-39 -38 -6
43 c-3 24 -7 59 -8 78 -4 54 -23 47 -41 -17 -17 -62 -46 -98 -71 -89 -19 7
-13 50 14 114 20 45 48 66 77 58 10 -3 4 1 -14 10 -59 27 -115 -20 -129 -107
-7 -40 -16 -52 -51 -62 -21 -7 -23 -4 -23 36 0 49 -6 60 -38 77 -54 28 -74
-60 -26 -110 30 -31 24 -55 -20 -78 -31 -17 -56 -8 -56 19 0 25 25 110 46 159
18 41 11 50 -24 31 -33 -19 -72 -93 -72 -137 0 -32 -50 -145 -69 -157 -29 -18
-46 111 -29 224 25 163 54 264 88 309 16 22 17 22 34 5 40 -40 -3 -189 -79
-273 -21 -22 -33 -41 -27 -41 37 0 145 181 158 267 5 36 3 45 -19 67 -28 28
-28 28 -74 15z m185 -377 c-3 -29 -21 -34 -26 -7 -2 9 -1 29 3 43 6 24 8 25
16 9 6 -10 9 -30 7 -45z m202 -291 c-11 -42 -38 -65 -64 -55 -37 14 -22 84 35
155 l34 43 3 -51 c2 -29 -2 -70 -8 -92z m-710 75 c-36 -75 -108 -121 -124 -80
-3 8 -2 23 3 33 11 19 132 104 139 97 2 -3 -6 -25 -18 -50z"/>
<path d="M568 913 c-51 -55 -100 -185 -119 -316 -9 -59 -22 -101 -48 -150
l-36 -69 -3 39 c-2 21 4 80 14 130 21 109 14 146 -28 151 -33 4 -60 -23 -103
-108 -36 -69 -37 -68 -39 26 -2 65 -16 94 -47 94 -18 0 -19 -10 -19 -140 l0
-140 28 0 c26 0 32 7 56 63 25 57 93 163 101 155 2 -1 -3 -37 -10 -78 -15 -80
-19 -178 -9 -204 7 -19 44 -21 67 -3 9 6 27 32 41 56 23 41 25 43 29 20 3 -13
10 -50 15 -81 19 -101 69 -140 99 -77 14 28 6 67 -23 122 -8 15 -11 27 -6 27
5 0 30 18 55 40 l46 41 13 -27 c7 -15 25 -36 40 -47 25 -19 30 -19 54 -6 15 8
36 28 48 46 14 21 32 34 52 38 34 6 84 40 84 56 0 6 -12 2 -27 -9 -16 -11 -38
-23 -50 -26 -21 -7 -23 -4 -23 36 0 49 -6 60 -38 77 -54 28 -74 -60 -26 -110
30 -31 24 -55 -20 -78 -31 -17 -56 -8 -56 19 0 25 25 110 46 159 18 40 13 48
-21 33 -30 -14 -63 -65 -71 -112 -4 -19 -16 -46 -28 -58 -21 -24 -105 -78
-109 -71 -2 2 -1 32 1 67 3 55 7 64 27 72 68 26 148 129 176 228 30 106 13
142 -68 142 -30 0 -45 -7 -65 -27z m96 1 c39 -39 8 -173 -58 -251 -31 -37 -85
-78 -92 -70 -12 12 69 262 102 312 19 29 27 31 48 9z m134 -342 c-3 -29 -21
-34 -26 -7 -2 9 -1 29 3 43 6 24 8 25 16 9 6 -10 9 -30 7 -45z m-259 -247 c14
-50 14 -58 -1 -53 -12 4 -38 80 -38 113 0 19 0 19 14 0 7 -11 19 -38 25 -60z"/>
<path d="M50 920 c-18 -6 -20 -8 -7 -9 17 -1 18 -7 10 -78 -4 -43 -7 -160 -6
-260 1 -153 -1 -183 -13 -183 -8 0 -14 -3 -14 -7 0 -5 27 -6 60 -5 33 2 60 8
60 13 0 5 -9 9 -21 9 -16 0 -19 4 -15 17 4 9 11 92 16 185 7 129 6 184 -4 237
-13 67 -13 69 8 79 19 9 17 11 -14 10 -19 0 -46 -4 -60 -8z"/>
</g>
</svg>
